<svg xmlns="http://www.w3.org/2000/svg" xmlns:xlink="http://www.w3.org/1999/xlink" viewBox="0 0 190 61"><defs><style>.cls-1{fill:none;}.cls-2{isolation:isolate;}.cls-3{clip-path:url(#clip-path);}.cls-4{mix-blend-mode:color-dodge;fill:url(#linear-gradient);}.cls-5{fill:#02b6d0;}.cls-6{fill:#1a85c7;}.cls-7{fill:#8c8d8d;}.cls-8{fill:#cac9c9;}</style><clipPath id="clip-path"><rect class="cls-1" x="-1821" y="-1265" width="1920" height="1080"/></clipPath><linearGradient id="linear-gradient" x1="111.31" y1="162.04" x2="-460.04" y2="-1025.78" gradientTransform="translate(-874.28 176.11) rotate(23.68)" gradientUnits="userSpaceOnUse"><stop offset="0"/><stop offset="0.23" stop-color="#050505"/><stop offset="0.49" stop-color="#131313"/><stop offset="0.77" stop-color="#292929"/><stop offset="1" stop-color="#424242"/></linearGradient></defs><title>logonav</title><g class="cls-2"><g id="Capa_1" data-name="Capa 1"><g class="cls-3"><path class="cls-4" d="M-1736.28-663.27c217.4-142.57,416.16-103.65,634.21-8.25C-915.49-589.9-732.72-461-527.59-456.13c204.49,4.89,380.31-65.11,564.07,18.58,246.37,112.21,269,339.15,170,512.15C69.33,314.46-224.77,344.5-451.54,235.32-639.2,145-836.07,45.41-1062.16,89.78c-208.24,40.87-423.33,228.3-647.08,145C-1963,140.31-2138.37-399.57-1736.28-663.27Z"/></g><path class="cls-5" d="M136.43,35.9h-18a6.39,6.39,0,0,0,2.08,4.7,7.53,7.53,0,0,0,5.14,1.67,8.36,8.36,0,0,0,6.14-2.09l2.29,4.5c-2.08,1.68-5.17,2.52-9.3,2.52q-5.77,0-9.14-3.38t-3.37-9.45a13.1,13.1,0,0,1,3.69-9.67,12.94,12.94,0,0,1,17.67-.42,11.2,11.2,0,0,1,3.32,8.34,14.81,14.81,0,0,1-.48,3.28ZM118.6,31.48H131c-.41-3.7-2.45-5.55-6.14-5.55-3.37,0-5.46,1.84-6.27,5.55Z"/><polygon class="cls-6" points="143.41 47.31 137.44 47.31 159.27 18.9 156.67 18.7 165.95 13.7 165.26 23.08 163.85 21 143.41 47.31"/><polygon class="cls-5" points="151.19 39.01 157.27 47.31 164.62 47.31 154.86 34.27 151.19 39.01"/><polygon class="cls-5" points="150.56 28.52 145.2 21.35 138.24 21.35 146.94 33.23 150.56 28.52"/><path class="cls-5" d="M176.24,26.18V37.24a6.55,6.55,0,0,0,.84,3.84,3.54,3.54,0,0,0,3,1.12,7.12,7.12,0,0,0,3.09-.69v5.2a21.83,21.83,0,0,1-5,.46,7.65,7.65,0,0,1-5.8-2.13,8.49,8.49,0,0,1-2-6.08V26.18l-2.67,0,.29-4.71h2.38V16.3l5.91-2.17v7.32h6.93v4.73Z"/><polygon class="cls-5" points="109.03 13.83 109.03 47.31 106.27 47.31 90.37 26.58 90.37 47.32 84.66 47.32 84.66 13.83 87.51 13.83 103.33 34.03 103.33 13.83 109.03 13.83"/><path class="cls-7" d="M7.2,47.17V41.61H30a4.8,4.8,0,0,0,3.43-1.37,4.38,4.38,0,0,0,1.45-3.34,4.44,4.44,0,0,0-1.42-3.34A4.78,4.78,0,0,0,30,32.19H16.2a8.78,8.78,0,0,1-8.08-4.55,9.12,9.12,0,0,1-1.29-4.71A9,9,0,0,1,9.54,16.4a8.89,8.89,0,0,1,6.55-2.72H39.35v5.4H16.28a4,4,0,0,0-2.83,1.13A3.67,3.67,0,0,0,12.28,23a3.77,3.77,0,0,0,1.17,2.8,4,4,0,0,0,2.83,1.13h14.1a9.61,9.61,0,0,1,9,5.08,10,10,0,0,1,1.33,5,9.47,9.47,0,0,1-3.08,7.33,10.67,10.67,0,0,1-7.51,2.84Z"/><path class="cls-8" d="M54.19,47.17a10.65,10.65,0,0,1-7.5-2.84A9.53,9.53,0,0,1,43.61,37a10,10,0,0,1,1.33-5,9.59,9.59,0,0,1,9-5.08H68a4,4,0,0,0,2.84-1.13A3.74,3.74,0,0,0,72,23a3.67,3.67,0,0,0-1.17-2.74A4,4,0,0,0,68,19.09H45v-5.4H68.21a8.88,8.88,0,0,1,6.55,2.72,9,9,0,0,1,2.71,6.53,9.18,9.18,0,0,1-1.29,4.71A8.76,8.76,0,0,1,68.1,32.2H54.25a4.81,4.81,0,0,0-3.46,1.36,4.47,4.47,0,0,0-1.42,3.35,4.37,4.37,0,0,0,1.44,3.34,4.8,4.8,0,0,0,3.43,1.37H77.08v5.56Z"/></g></g></svg>